# xmcd
#
# Track frame offsets: 
#        150
#        30313
#        51650
#        71362
#        103947
#        125325
#        146496
#        170637
#        192734
#
# Disc length: 2820 seconds
#
# Revision: 0
# Processed by: cddbd v1.5.2PL0 Copyright (c) Steve Scherf et al.
# Submitted via: ExactAudioCopy v0.99pb5
#
DISCID=870b0209
DTITLE=The Black Crowes - ...Until The Freeze
DYEAR=2009
DGENRE=Country
TTITLE0=01-Aimless Peacock
TTITLE1=02-Shady Grove
TTITLE2=03-Garden Gate
TTITLE3=04-Greenhorn
TTITLE4=05-Shine Along
TTITLE5=06-Roll Old Jeremiah
TTITLE6=07-Lady Of Avenue A
TTITLE7=08-So Many Times
TTITLE8=09-Fork In The River
EXTD=
EXTT0=
EXTT1=
EXTT2=
EXTT3=
EXTT4=
EXTT5=
EXTT6=
EXTT7=
EXTT8=
PLAYORDER=
